# xmcd
#
# Track frame offsets:
#	150
#	14457
#	31255
#	48342
#	70315
#	89325
#	108930
#	125417
#	143740
#	165220
#
# Disc length: 2448 seconds
#
# Revision: 1
# Processed by: cddbd v1.5.1PL0 Copyright (c) Steve Scherf et al.
# Submitted via: CDex 1.50Beta5
#
DISCID=79098e0a
DTITLE=簑谷雅彦 - Dear My Friends
DYEAR=1994
DGENRE=Pop
TTITLE0=彷徨
TTITLE1=信愛
TTITLE2=冬の海
TTITLE3=愛すべき人達は眠りについているだろうか
TTITLE4=片想い
TTITLE5=円舞曲
TTITLE6=雪…
TTITLE7=遠い昔に
TTITLE8=ひとりきり
TTITLE9=涙が歌にかわるとき
EXTD=
EXTT0=
EXTT1=
EXTT2=
EXTT3=
EXTT4=
EXTT5=
EXTT6=
EXTT7=
EXTT8=
EXTT9=
PLAYORDER=
